<svg id="svg" version="1.1" xmlns="http://www.w3.org/2000/svg" xmlns:xlink="http://www.w3.org/1999/xlink" width="400" height="283.24873096446703" viewBox="0, 0, 400,283.24873096446703"><g id="svgg"><path id="path0" d="M102.550 78.049 L 102.550 88.116 122.542 88.094 C 134.014 88.082,142.827 87.961,143.222 87.811 C 143.693 87.632,143.909 87.648,143.909 87.863 C 143.909 88.066,144.356 88.125,145.184 88.032 C 145.893 87.952,146.459 88.007,146.459 88.155 C 146.459 88.494,147.666 88.336,147.942 87.960 C 148.072 87.784,148.152 87.807,148.154 88.022 C 148.157 88.212,148.333 88.300,148.547 88.218 C 148.761 88.136,149.008 88.259,149.097 88.491 C 149.217 88.804,149.462 88.855,150.054 88.689 C 150.593 88.539,151.124 88.607,151.700 88.901 C 152.167 89.140,152.996 89.375,153.541 89.422 C 154.871 89.538,155.316 89.635,155.737 89.897 C 155.931 90.019,156.218 90.040,156.374 89.943 C 156.530 89.847,156.657 89.917,156.657 90.099 C 156.657 90.281,156.854 90.353,157.097 90.260 C 157.349 90.163,157.463 90.211,157.363 90.372 C 157.268 90.526,157.397 90.652,157.649 90.652 C 157.940 90.652,158.030 90.522,157.894 90.297 C 157.748 90.054,157.830 90.064,158.158 90.330 C 158.420 90.542,158.552 90.848,158.452 91.011 C 158.350 91.175,158.405 91.222,158.577 91.116 C 158.746 91.011,158.951 91.034,159.033 91.166 C 159.115 91.299,159.570 91.350,160.044 91.280 C 160.587 91.201,160.907 91.277,160.907 91.486 C 160.907 91.669,161.034 91.739,161.190 91.643 C 161.346 91.547,161.473 91.603,161.473 91.768 C 161.473 91.933,161.664 92.068,161.898 92.068 C 162.132 92.068,162.323 92.203,162.323 92.368 C 162.323 92.533,162.440 92.596,162.582 92.508 C 162.725 92.420,162.884 92.475,162.936 92.630 C 162.988 92.786,163.379 92.942,163.803 92.977 C 164.228 93.012,164.638 93.204,164.715 93.404 C 164.792 93.604,165.050 93.768,165.289 93.768 C 165.527 93.768,165.722 93.903,165.722 94.068 C 165.722 94.233,165.840 94.295,165.983 94.207 C 166.126 94.118,166.445 94.247,166.691 94.494 C 167.016 94.818,167.139 94.840,167.139 94.575 C 167.139 94.373,167.337 94.492,167.580 94.838 C 167.822 95.184,168.211 95.467,168.443 95.467 C 168.674 95.467,169.182 95.785,169.570 96.173 C 169.958 96.561,170.580 96.955,170.953 97.048 C 171.325 97.142,171.699 97.398,171.784 97.618 C 171.868 97.837,172.132 98.017,172.371 98.017 C 172.609 98.017,172.805 98.208,172.805 98.442 C 172.805 98.676,172.982 98.867,173.199 98.867 C 173.416 98.867,173.670 99.066,173.764 99.310 C 173.857 99.553,174.049 99.682,174.189 99.595 C 174.330 99.508,174.518 99.627,174.607 99.860 C 174.697 100.093,175.044 100.283,175.380 100.283 C 175.917 100.283,175.944 100.340,175.601 100.763 C 175.337 101.088,175.326 101.174,175.567 101.029 C 175.769 100.908,175.921 100.958,175.921 101.147 C 175.921 101.329,176.118 101.401,176.360 101.308 C 176.602 101.216,176.734 101.246,176.654 101.376 C 176.491 101.640,177.996 103.187,178.373 103.144 C 178.504 103.129,178.612 103.239,178.612 103.388 C 178.612 103.538,179.122 104.142,179.745 104.730 C 180.368 105.318,180.846 105.897,180.807 106.016 C 180.768 106.135,180.924 106.232,181.153 106.232 C 181.425 106.232,181.506 106.396,181.387 106.706 C 181.251 107.061,181.320 107.136,181.664 107.004 C 181.987 106.881,182.077 106.949,181.968 107.234 C 181.869 107.493,182.080 107.743,182.549 107.921 C 182.954 108.075,183.286 108.276,183.286 108.367 C 183.286 108.458,183.159 108.453,183.003 108.357 C 182.459 108.021,182.725 108.580,183.410 109.215 C 183.790 109.567,184.013 109.953,183.906 110.072 C 183.799 110.191,183.948 110.203,184.238 110.099 C 184.634 109.956,184.725 110.016,184.601 110.337 C 184.511 110.572,184.564 110.765,184.718 110.765 C 184.873 110.765,185.130 111.115,185.290 111.544 C 185.875 113.115,186.262 113.881,186.471 113.881 C 186.589 113.881,186.686 114.076,186.686 114.315 C 186.686 114.553,186.876 114.822,187.109 114.911 C 187.342 115.000,187.468 115.177,187.390 115.304 C 187.311 115.431,187.417 115.705,187.624 115.912 C 187.831 116.119,187.992 116.380,187.981 116.492 C 187.969 116.604,188.182 116.955,188.453 117.271 C 188.724 117.588,188.804 117.847,188.631 117.847 C 188.412 117.847,188.420 117.973,188.658 118.260 C 188.847 118.486,188.906 118.825,188.791 119.012 C 188.658 119.226,188.701 119.277,188.908 119.149 C 189.111 119.024,189.235 119.148,189.235 119.476 C 189.235 119.767,189.427 120.252,189.661 120.555 C 190.080 121.097,190.084 121.096,189.917 120.538 C 189.797 120.136,189.826 120.080,190.015 120.344 C 190.162 120.549,190.220 121.046,190.143 121.449 C 190.066 121.851,190.117 122.110,190.256 122.024 C 190.396 121.938,190.540 122.206,190.577 122.619 C 190.614 123.033,190.688 123.881,190.742 124.504 C 190.796 125.127,190.751 125.765,190.641 125.921 C 190.532 126.076,190.288 126.682,190.100 127.266 C 189.912 127.851,189.608 128.331,189.426 128.333 C 189.175 128.336,189.174 128.388,189.422 128.546 C 190.212 129.049,186.487 131.652,185.223 131.481 C 184.965 131.446,184.672 131.549,184.572 131.710 C 184.450 131.907,174.192 132.009,152.890 132.023 C 118.924 132.047,117.612 132.063,117.328 132.458 C 117.224 132.602,117.011 132.727,116.856 132.735 C 116.136 132.776,115.032 133.228,115.158 133.432 C 115.235 133.556,115.066 133.597,114.781 133.523 C 114.099 133.345,112.120 134.513,112.378 134.943 C 112.485 135.122,112.358 135.094,112.094 134.880 C 111.678 134.542,111.615 134.558,111.615 134.998 C 111.615 135.277,111.531 135.421,111.428 135.319 C 111.154 135.044,110.457 135.709,110.666 136.046 C 110.765 136.207,110.669 136.272,110.450 136.194 C 109.906 136.000,109.065 136.477,109.065 136.979 C 109.065 137.207,108.928 137.394,108.760 137.394 C 108.402 137.394,106.799 138.941,106.799 139.287 C 106.799 139.417,106.468 139.881,106.063 140.318 C 105.658 140.754,105.303 141.276,105.274 141.476 C 105.244 141.677,105.002 142.175,104.735 142.582 C 104.468 142.989,104.249 143.462,104.249 143.633 C 104.249 143.803,104.136 143.873,103.998 143.788 C 103.860 143.702,103.681 143.886,103.600 144.196 C 103.519 144.506,103.568 144.689,103.709 144.601 C 103.850 144.514,103.966 144.641,103.966 144.884 C 103.966 145.127,103.784 145.326,103.562 145.326 C 103.272 145.326,103.185 145.605,103.251 146.317 C 103.302 146.863,103.222 147.309,103.074 147.309 C 102.926 147.309,102.856 147.819,102.918 148.442 C 102.980 149.065,102.923 149.575,102.790 149.575 C 102.658 149.575,102.550 149.989,102.550 150.496 L 102.550 151.416 143.307 151.344 C 178.658 151.281,184.109 151.326,184.405 151.682 C 184.659 151.988,184.927 152.025,185.449 151.827 C 185.835 151.680,186.084 151.668,186.002 151.801 C 185.920 151.934,186.358 152.284,186.974 152.579 C 187.591 152.874,188.097 153.219,188.099 153.345 C 188.101 153.471,188.233 153.494,188.392 153.395 C 188.552 153.296,188.664 153.321,188.642 153.449 C 188.538 154.048,188.714 154.367,189.239 154.534 C 189.553 154.634,189.739 154.829,189.653 154.969 C 189.567 155.108,189.739 155.374,190.036 155.559 C 190.377 155.772,190.522 156.099,190.431 156.447 C 190.352 156.751,190.465 157.111,190.682 157.248 C 190.979 157.437,190.987 157.499,190.712 157.503 C 190.458 157.506,190.425 157.656,190.603 158.003 C 190.743 158.275,190.811 158.817,190.754 159.207 C 190.697 159.596,190.617 160.271,190.576 160.707 C 190.535 161.143,190.312 161.619,190.081 161.765 C 189.710 161.999,189.710 162.032,190.085 162.040 C 190.335 162.045,190.393 162.134,190.227 162.257 C 189.591 162.724,188.954 164.286,189.471 164.108 C 189.888 163.965,189.885 163.993,189.450 164.339 C 188.899 164.776,187.819 166.771,187.819 167.349 C 187.819 167.555,187.628 167.796,187.395 167.886 C 187.163 167.975,187.043 168.163,187.130 168.304 C 187.217 168.444,187.094 168.754,186.857 168.991 C 186.618 169.230,186.504 169.638,186.601 169.909 C 186.697 170.177,186.678 170.308,186.558 170.200 C 186.311 169.978,184.929 171.501,185.050 171.862 C 185.092 171.991,184.873 172.361,184.561 172.684 C 183.534 173.750,182.742 174.877,182.872 175.088 C 182.942 175.202,182.809 175.368,182.576 175.457 C 182.343 175.547,182.153 175.822,182.153 176.070 C 182.153 176.342,182.022 176.439,181.822 176.316 C 181.599 176.178,181.549 176.265,181.671 176.582 C 181.802 176.924,181.698 177.054,181.294 177.054 C 180.804 177.054,180.587 177.491,180.700 178.248 C 180.716 178.359,180.519 178.369,180.262 178.270 C 179.920 178.139,179.857 178.193,180.028 178.470 C 180.203 178.753,180.134 178.800,179.757 178.656 C 179.352 178.500,179.282 178.576,179.403 179.039 C 179.514 179.466,179.431 179.597,179.083 179.539 C 178.784 179.490,178.626 179.642,178.651 179.954 C 178.672 180.225,178.576 180.377,178.438 180.292 C 178.300 180.206,178.185 180.367,178.183 180.649 C 178.179 181.084,178.137 181.097,177.904 180.737 C 177.672 180.378,177.628 180.394,177.625 180.838 C 177.622 181.188,177.479 181.309,177.195 181.201 C 176.962 181.111,176.771 181.161,176.771 181.312 C 176.771 181.463,176.930 181.588,177.125 181.591 C 177.368 181.594,177.350 181.677,177.067 181.855 C 176.841 181.998,176.553 182.052,176.428 181.975 C 176.303 181.897,176.124 182.032,176.031 182.275 C 175.938 182.518,175.748 182.646,175.609 182.560 C 175.470 182.475,175.208 182.730,175.027 183.129 C 174.845 183.527,174.582 183.853,174.442 183.853 C 174.302 183.853,174.261 183.971,174.351 184.116 C 174.440 184.261,174.364 184.472,174.182 184.585 C 173.963 184.721,173.926 184.667,174.075 184.426 C 174.226 184.182,174.170 184.110,173.906 184.205 C 173.690 184.284,173.548 184.501,173.591 184.688 C 173.633 184.875,173.538 184.947,173.378 184.849 C 173.218 184.750,173.088 184.812,173.088 184.986 C 173.088 185.160,172.966 185.227,172.818 185.136 C 172.445 184.905,171.377 185.866,171.590 186.240 C 171.685 186.407,171.659 186.450,171.532 186.336 C 171.406 186.221,171.121 186.349,170.899 186.619 C 170.678 186.889,170.574 186.955,170.670 186.766 C 170.765 186.576,170.328 186.758,169.699 187.170 C 169.070 187.582,168.555 188.032,168.555 188.169 C 168.555 188.306,168.428 188.340,168.272 188.244 C 168.116 188.147,167.987 188.299,167.984 188.581 C 167.981 188.983,167.927 189.009,167.733 188.703 C 167.597 188.488,167.342 188.402,167.166 188.510 C 166.990 188.619,166.932 188.846,167.036 189.015 C 167.150 189.199,167.095 189.241,166.900 189.121 C 166.497 188.872,165.362 189.621,165.653 189.943 C 165.769 190.071,165.710 190.088,165.522 189.980 C 165.075 189.723,163.173 190.523,163.173 190.968 C 163.173 191.157,163.092 191.232,162.994 191.134 C 162.896 191.035,162.545 191.105,162.215 191.288 C 161.885 191.472,161.506 191.590,161.372 191.552 C 161.239 191.513,160.952 191.629,160.735 191.809 C 160.518 191.990,160.340 192.042,160.340 191.926 C 160.340 191.810,160.181 191.836,159.986 191.985 C 159.791 192.133,159.025 192.478,158.284 192.752 C 157.414 193.073,157.007 193.366,157.135 193.579 C 157.271 193.807,157.199 193.801,156.903 193.562 C 156.667 193.371,156.356 193.322,156.211 193.452 C 155.796 193.829,154.108 194.329,154.108 194.076 C 154.108 193.950,153.598 193.983,152.975 194.149 C 152.351 194.315,151.841 194.560,151.841 194.693 C 151.841 194.826,151.714 194.856,151.558 194.759 C 151.402 194.663,151.275 194.719,151.275 194.884 C 151.275 195.049,151.140 195.184,150.975 195.184 C 150.810 195.184,150.749 195.064,150.839 194.918 C 151.030 194.610,148.996 194.858,148.632 195.187 C 148.503 195.304,147.961 195.340,147.428 195.269 C 146.895 195.197,146.459 195.248,146.459 195.383 C 146.459 195.630,145.384 195.675,144.887 195.448 C 144.739 195.381,135.184 195.390,123.654 195.467 L 102.691 195.609 102.617 205.460 L 102.542 215.312 123.995 215.289 C 140.174 215.272,145.550 215.183,145.866 214.928 C 146.194 214.662,146.239 214.666,146.072 214.943 C 145.955 215.138,145.986 215.297,146.142 215.297 C 146.298 215.297,146.490 215.193,146.569 215.065 C 146.649 214.937,147.170 214.868,147.729 214.912 C 148.288 214.956,148.682 214.891,148.606 214.767 C 148.529 214.643,148.652 214.542,148.879 214.542 C 149.106 214.542,149.292 214.627,149.292 214.731 C 149.292 215.118,152.928 214.683,153.683 214.206 C 153.839 214.107,154.221 213.996,154.533 213.959 C 156.159 213.766,157.246 213.508,157.385 213.283 C 157.470 213.145,157.668 213.031,157.824 213.031 C 157.980 213.031,158.016 213.178,157.905 213.358 C 157.780 213.560,157.827 213.608,158.029 213.484 C 158.208 213.373,158.610 213.226,158.922 213.157 C 159.235 213.088,159.758 212.972,160.086 212.900 C 160.413 212.828,160.884 212.605,161.131 212.404 C 161.406 212.182,161.505 212.168,161.385 212.367 C 161.253 212.589,161.380 212.645,161.780 212.541 C 162.105 212.456,162.434 212.220,162.512 212.018 C 162.590 211.816,162.829 211.718,163.043 211.800 C 163.652 212.034,165.474 211.339,165.258 210.955 C 165.117 210.703,165.159 210.703,165.432 210.955 C 165.814 211.308,166.581 211.148,166.914 210.646 C 167.025 210.481,167.280 210.331,167.481 210.315 C 168.710 210.213,168.722 210.207,168.272 209.884 C 167.905 209.620,167.910 209.598,168.309 209.725 C 168.771 209.872,171.111 209.191,171.385 208.831 C 171.646 208.487,172.788 207.932,173.235 207.932 C 173.475 207.932,173.746 207.741,173.835 207.507 C 173.925 207.273,174.247 207.082,174.551 207.082 C 174.918 207.082,175.033 206.963,174.892 206.728 C 174.768 206.522,174.901 206.551,175.212 206.799 C 175.524 207.047,175.657 207.076,175.533 206.870 C 175.414 206.671,175.459 206.516,175.637 206.516 C 175.812 206.516,175.883 206.400,175.795 206.259 C 175.708 206.117,175.881 206.066,176.179 206.144 C 176.543 206.239,176.833 206.078,177.060 205.654 C 177.299 205.207,177.461 205.124,177.612 205.369 C 177.767 205.619,178.095 205.485,178.786 204.889 C 179.313 204.434,179.976 203.977,180.259 203.874 C 180.541 203.771,180.694 203.560,180.598 203.405 C 180.502 203.249,180.600 203.190,180.817 203.273 C 181.033 203.356,181.518 203.154,181.894 202.824 C 182.270 202.493,182.399 202.316,182.180 202.430 C 181.918 202.566,181.851 202.525,181.984 202.310 C 182.095 202.130,182.434 201.983,182.736 201.983 C 183.039 201.983,183.286 201.856,183.286 201.700 C 183.286 201.544,183.555 201.416,183.883 201.416 C 184.331 201.416,184.433 201.295,184.293 200.929 C 184.190 200.661,184.193 200.529,184.300 200.636 C 184.624 200.960,185.608 200.271,185.442 199.837 C 185.333 199.553,185.500 199.433,186.003 199.433 C 186.408 199.433,186.643 199.310,186.544 199.150 C 186.447 198.994,186.651 198.867,186.999 198.867 C 187.346 198.867,187.549 198.786,187.451 198.688 C 187.352 198.589,187.777 198.142,188.395 197.694 C 189.013 197.247,189.518 196.785,189.518 196.668 C 189.518 196.551,189.902 196.286,190.370 196.079 C 190.838 195.871,191.149 195.585,191.061 195.443 C 190.973 195.301,191.050 195.184,191.232 195.184 C 191.413 195.184,191.491 194.999,191.405 194.774 C 191.304 194.513,191.383 194.415,191.621 194.507 C 191.827 194.586,192.071 194.452,192.164 194.209 C 192.257 193.966,192.544 193.768,192.800 193.768 C 193.128 193.768,193.223 193.598,193.119 193.201 C 193.032 192.868,193.086 192.705,193.250 192.807 C 193.539 192.985,194.525 191.808,194.403 191.431 C 194.365 191.314,194.488 191.250,194.676 191.289 C 194.863 191.328,195.024 191.232,195.034 191.076 C 195.069 190.495,195.500 190.115,195.934 190.282 C 196.288 190.418,196.342 190.325,196.189 189.845 C 196.032 189.348,196.110 189.235,196.612 189.235 C 197.037 189.235,197.178 189.106,197.068 188.819 C 196.980 188.591,197.050 188.316,197.223 188.209 C 197.425 188.084,197.464 188.157,197.332 188.412 C 197.218 188.631,197.326 188.563,197.571 188.260 C 197.816 187.958,198.017 187.594,198.017 187.451 C 198.017 187.309,198.337 186.940,198.728 186.633 C 199.119 186.325,199.373 185.967,199.292 185.836 C 199.211 185.705,199.331 185.412,199.559 185.184 C 199.787 184.956,199.908 184.705,199.829 184.626 C 199.749 184.546,200.074 184.204,200.550 183.864 C 201.027 183.525,201.416 183.001,201.416 182.700 C 201.416 182.393,201.610 182.153,201.858 182.153 C 202.101 182.153,202.221 182.025,202.125 181.870 C 202.028 181.714,202.098 181.586,202.280 181.586 C 202.462 181.586,202.535 181.389,202.441 181.147 C 202.349 180.905,202.392 180.781,202.539 180.871 C 202.776 181.018,203.599 179.883,203.424 179.651 C 203.384 179.599,203.447 179.471,203.563 179.367 C 203.679 179.263,203.682 179.338,203.570 179.533 C 203.439 179.760,203.549 179.888,203.878 179.891 C 204.313 179.895,204.326 179.937,203.966 180.170 C 203.598 180.408,203.604 180.445,204.010 180.449 C 204.339 180.452,204.435 180.623,204.331 181.020 C 204.250 181.331,204.317 181.586,204.480 181.586 C 204.644 181.586,204.859 181.843,204.959 182.157 C 205.058 182.471,205.257 182.656,205.400 182.567 C 205.542 182.479,205.591 182.584,205.508 182.801 C 205.372 183.155,206.062 183.994,206.488 183.994 C 206.581 183.994,206.637 184.171,206.611 184.387 C 206.586 184.603,206.809 185.042,207.107 185.361 C 207.405 185.681,207.649 186.110,207.649 186.314 C 207.649 186.518,207.784 186.686,207.949 186.686 C 208.114 186.686,208.157 186.835,208.044 187.017 C 207.909 187.236,207.990 187.290,208.284 187.177 C 208.595 187.058,208.783 187.218,208.906 187.707 C 209.003 188.093,209.199 188.336,209.343 188.247 C 209.486 188.159,209.750 188.377,209.930 188.731 C 210.110 189.086,210.786 189.858,211.432 190.445 C 212.131 191.081,212.377 191.436,212.040 191.322 C 211.651 191.190,211.738 191.343,212.317 191.811 C 212.782 192.186,213.269 192.458,213.401 192.415 C 213.532 192.372,213.577 192.439,213.500 192.563 C 213.288 192.906,215.790 195.546,216.129 195.337 C 216.297 195.233,216.361 195.320,216.276 195.539 C 216.090 196.026,218.298 197.838,218.743 197.564 C 218.944 197.440,218.990 197.488,218.865 197.690 C 218.741 197.892,218.966 198.133,219.449 198.317 C 220.013 198.531,220.131 198.681,219.867 198.844 C 219.578 199.022,219.596 199.108,219.948 199.243 C 220.195 199.338,220.397 199.296,220.397 199.150 C 220.397 199.004,220.599 198.962,220.845 199.057 C 221.148 199.173,221.190 199.293,220.975 199.426 C 220.779 199.548,221.163 200.017,221.981 200.655 C 222.709 201.222,223.402 201.626,223.521 201.553 C 223.640 201.480,223.810 201.610,223.899 201.843 C 223.988 202.076,224.257 202.266,224.495 202.266 C 224.734 202.266,224.929 202.394,224.929 202.550 C 224.929 202.705,225.025 202.818,225.142 202.799 C 225.684 202.714,226.081 202.857,225.939 203.086 C 225.770 203.360,226.504 203.782,227.195 203.809 C 227.429 203.818,227.620 204.016,227.620 204.250 C 227.620 204.483,227.909 204.715,228.262 204.765 C 228.615 204.815,228.830 204.976,228.740 205.121 C 228.650 205.267,228.807 205.459,229.090 205.547 C 229.372 205.635,229.840 205.835,230.129 205.991 C 230.534 206.209,230.610 206.188,230.462 205.899 C 230.356 205.693,230.470 205.772,230.716 206.074 C 230.961 206.376,231.161 206.531,231.161 206.417 C 231.161 206.303,231.512 206.538,231.941 206.939 C 232.369 207.341,232.934 207.615,233.197 207.549 C 233.460 207.482,233.748 207.620,233.838 207.854 C 233.938 208.115,234.219 208.223,234.565 208.132 C 234.875 208.051,235.057 208.100,234.970 208.242 C 234.882 208.383,234.953 208.499,235.127 208.499 C 235.302 208.499,235.371 208.618,235.281 208.763 C 235.191 208.909,235.465 208.991,235.891 208.945 C 236.317 208.900,236.833 209.030,237.038 209.235 C 237.243 209.440,237.585 209.541,237.798 209.459 C 238.012 209.377,238.283 209.466,238.400 209.656 C 238.546 209.892,238.496 209.930,238.244 209.773 C 237.998 209.622,237.941 209.655,238.075 209.871 C 238.186 210.051,238.532 210.198,238.844 210.198 C 239.155 210.198,239.345 210.305,239.264 210.434 C 239.184 210.564,239.298 210.670,239.518 210.670 C 239.738 210.670,239.836 210.532,239.735 210.364 C 239.634 210.195,239.767 210.232,240.031 210.445 C 240.294 210.659,240.510 210.739,240.510 210.623 C 240.510 210.507,240.716 210.583,240.968 210.792 C 241.786 211.471,243.436 211.921,243.683 211.532 C 243.879 211.224,244.015 211.540,243.965 212.185 C 243.959 212.266,244.512 212.313,245.195 212.290 C 245.985 212.263,246.415 212.364,246.377 212.569 C 246.340 212.767,246.723 212.873,247.379 212.848 C 248.045 212.821,248.373 212.914,248.259 213.098 C 248.144 213.285,248.400 213.343,248.968 213.260 C 249.458 213.188,249.858 213.207,249.858 213.301 C 249.858 213.396,250.231 213.614,250.687 213.786 C 251.389 214.051,251.490 214.034,251.351 213.671 C 251.215 213.316,251.312 213.326,251.923 213.726 C 252.328 213.991,253.144 214.249,253.738 214.299 C 254.331 214.348,255.007 214.454,255.241 214.535 C 256.345 214.913,257.084 214.964,257.422 214.684 C 257.691 214.461,257.790 214.473,257.790 214.728 C 257.790 214.957,258.089 215.035,258.653 214.952 C 259.127 214.882,259.585 214.938,259.669 215.075 C 259.754 215.213,260.004 215.176,260.224 214.993 C 260.511 214.755,260.623 214.751,260.623 214.979 C 260.623 215.154,260.910 215.295,261.261 215.293 C 261.776 215.290,261.817 215.236,261.473 215.014 C 261.218 214.849,261.183 214.738,261.386 214.735 C 261.571 214.733,261.802 214.858,261.898 215.014 C 262.012 215.199,269.408 215.297,283.161 215.297 L 304.249 215.297 304.249 205.382 L 304.249 195.467 283.074 195.420 C 257.340 195.362,258.924 195.387,258.919 195.042 C 258.917 194.887,258.791 194.950,258.640 195.184 C 258.430 195.510,258.365 195.519,258.361 195.226 C 258.358 194.948,258.016 194.871,257.109 194.943 C 256.423 194.998,255.921 194.947,255.993 194.830 C 256.065 194.713,255.918 194.618,255.666 194.618 C 255.414 194.618,255.286 194.745,255.382 194.901 C 255.649 195.332,255.255 195.239,254.773 194.757 C 254.538 194.521,254.222 194.405,254.072 194.498 C 253.922 194.590,253.614 194.512,253.387 194.324 C 253.160 194.136,252.975 194.077,252.975 194.193 C 252.975 194.309,252.789 194.250,252.562 194.061 C 252.335 193.873,251.997 193.813,251.810 193.929 C 251.608 194.053,251.545 194.019,251.653 193.844 C 251.908 193.431,250.725 193.172,250.102 193.506 C 249.720 193.710,249.623 193.688,249.726 193.420 C 249.812 193.198,249.486 192.940,248.882 192.751 C 248.174 192.529,247.952 192.529,248.089 192.751 C 248.193 192.921,247.933 192.833,247.510 192.557 C 247.088 192.281,246.740 192.153,246.738 192.274 C 246.735 192.394,246.640 192.359,246.525 192.195 C 246.411 192.031,245.712 191.670,244.972 191.393 C 244.232 191.115,243.626 190.757,243.626 190.597 C 243.626 190.438,243.339 190.377,242.989 190.463 C 242.296 190.632,241.239 190.030,241.577 189.658 C 241.691 189.531,241.562 189.508,241.289 189.606 C 241.016 189.704,240.793 189.688,240.793 189.571 C 240.793 189.249,239.182 188.363,238.757 188.450 C 238.552 188.492,238.413 188.380,238.447 188.200 C 238.481 188.020,238.315 187.798,238.078 187.707 C 237.833 187.613,237.722 187.663,237.821 187.822 C 238.163 188.375,237.747 188.082,236.611 186.969 C 235.975 186.346,235.247 185.836,234.991 185.836 C 234.736 185.836,234.600 185.719,234.688 185.575 C 234.777 185.432,234.467 185.231,234.000 185.129 C 233.533 185.026,233.066 184.805,232.962 184.637 C 232.842 184.443,232.909 184.415,233.144 184.561 C 233.397 184.717,233.447 184.680,233.301 184.444 C 233.183 184.253,232.901 184.169,232.672 184.257 C 232.358 184.377,232.304 184.271,232.448 183.815 C 232.573 183.423,232.534 183.280,232.336 183.402 C 232.170 183.505,231.692 183.206,231.274 182.737 C 230.857 182.269,230.406 181.953,230.272 182.036 C 230.138 182.119,230.028 182.044,230.028 181.870 C 230.028 181.695,229.881 181.644,229.701 181.755 C 229.513 181.871,229.451 181.834,229.554 181.666 C 229.732 181.378,228.242 179.603,227.822 179.603 C 227.702 179.603,227.425 179.355,227.206 179.052 C 226.988 178.749,226.705 178.565,226.577 178.644 C 226.450 178.723,226.330 178.588,226.310 178.345 C 226.227 177.307,226.165 177.198,225.682 177.238 C 225.403 177.261,225.243 177.212,225.327 177.128 C 225.591 176.864,224.334 175.339,224.014 175.536 C 223.832 175.648,223.791 175.592,223.911 175.398 C 224.034 175.199,223.913 175.062,223.600 175.048 C 223.303 175.035,223.236 174.966,223.442 174.883 C 223.926 174.688,223.890 174.221,223.390 174.221 C 223.167 174.221,222.903 173.964,222.803 173.650 C 222.704 173.336,222.484 173.165,222.315 173.269 C 222.129 173.385,222.091 173.326,222.219 173.119 C 222.508 172.651,221.596 171.316,221.163 171.575 C 220.954 171.700,220.973 171.594,221.210 171.301 C 221.547 170.886,221.534 170.822,221.109 170.822 C 220.790 170.822,220.676 170.673,220.782 170.397 C 220.883 170.133,220.781 169.972,220.513 169.972 C 220.275 169.972,220.159 169.844,220.255 169.688 C 220.351 169.533,220.321 169.405,220.187 169.405 C 220.053 169.405,219.782 168.957,219.584 168.409 C 219.386 167.861,219.118 167.478,218.990 167.558 C 218.861 167.637,218.681 167.505,218.588 167.264 C 218.491 167.011,218.540 166.900,218.702 167.001 C 218.863 167.100,218.844 166.867,218.658 166.458 C 218.478 166.063,218.203 165.819,218.048 165.915 C 217.875 166.022,217.821 165.799,217.908 165.340 C 217.987 164.927,217.934 164.589,217.791 164.589 C 217.648 164.589,217.609 164.462,217.705 164.306 C 217.802 164.150,217.738 164.023,217.564 164.023 C 217.390 164.023,217.321 163.903,217.412 163.756 C 217.502 163.610,217.287 163.209,216.933 162.865 C 216.579 162.521,216.468 162.342,216.687 162.467 C 216.981 162.635,217.020 162.590,216.836 162.296 C 216.586 161.894,216.513 161.628,216.302 160.340 C 216.239 159.950,216.167 159.632,216.144 159.632 C 216.120 159.632,216.074 159.253,216.041 158.789 C 215.973 157.822,217.072 154.561,217.368 154.856 C 217.475 154.964,217.564 154.832,217.564 154.563 C 217.564 154.247,217.689 154.150,217.918 154.287 C 218.124 154.411,218.095 154.277,217.847 153.966 C 217.613 153.672,217.562 153.516,217.733 153.619 C 217.904 153.721,218.315 153.552,218.647 153.244 C 218.978 152.935,219.579 152.557,219.981 152.404 C 220.384 152.251,220.647 152.017,220.565 151.884 C 220.482 151.751,220.985 151.673,221.681 151.710 C 222.377 151.748,222.946 151.665,222.946 151.527 C 222.946 151.381,235.923 151.304,253.754 151.344 L 284.561 151.413 253.966 151.562 L 223.371 151.711 255.007 151.760 C 281.367 151.801,286.696 151.745,286.962 151.424 C 287.191 151.149,287.518 151.107,288.117 151.279 C 288.775 151.468,288.952 151.429,288.952 151.097 C 288.952 150.865,289.071 150.748,289.216 150.838 C 289.361 150.927,289.556 150.877,289.650 150.725 C 289.743 150.574,289.994 150.517,290.207 150.598 C 290.420 150.680,290.671 150.623,290.765 150.471 C 290.859 150.319,291.190 150.261,291.502 150.343 C 291.895 150.446,292.068 150.351,292.068 150.033 C 292.068 149.492,292.525 149.421,292.730 149.929 C 292.826 150.167,292.880 150.141,292.895 149.849 C 292.909 149.587,293.226 149.390,293.697 149.351 C 294.125 149.316,294.518 149.161,294.570 149.006 C 294.622 148.852,294.791 148.725,294.945 148.725 C 295.346 148.725,296.033 147.982,296.038 147.541 C 296.042 147.264,296.115 147.278,296.322 147.592 C 296.558 147.953,296.625 147.931,296.764 147.450 C 296.854 147.139,297.434 146.530,298.052 146.098 C 298.670 145.666,299.097 145.185,299.000 145.029 C 298.904 144.873,298.994 144.780,299.200 144.823 C 299.406 144.866,299.543 144.742,299.504 144.547 C 299.465 144.352,299.568 144.193,299.733 144.193 C 299.898 144.193,299.956 144.067,299.860 143.913 C 299.764 143.757,299.868 143.702,300.093 143.788 C 300.354 143.888,300.611 143.660,300.812 143.148 C 301.129 142.340,301.708 141.335,302.004 141.076 C 302.139 140.958,302.506 140.202,302.690 139.660 C 302.717 139.582,302.893 139.146,303.081 138.691 C 303.269 138.235,303.356 137.689,303.274 137.476 C 303.192 137.263,303.318 137.015,303.553 136.925 C 303.882 136.799,303.906 136.671,303.655 136.369 C 303.408 136.071,303.414 135.977,303.681 135.977 C 303.902 135.977,303.982 135.717,303.898 135.278 C 303.825 134.893,303.874 134.645,304.007 134.728 C 304.380 134.958,304.294 133.869,303.909 133.484 C 303.645 133.220,303.645 133.144,303.909 133.144 C 304.409 133.144,304.324 132.384,303.801 132.183 C 303.555 132.089,285.189 132.011,262.989 132.011 C 234.104 132.011,222.460 131.922,222.042 131.699 C 221.593 131.459,221.401 131.475,221.215 131.770 C 221.071 131.997,220.970 132.023,220.968 131.833 C 220.965 131.657,220.581 131.355,220.113 131.161 C 219.646 130.968,219.263 130.683,219.263 130.527 C 219.263 130.372,219.008 130.312,218.696 130.394 C 218.385 130.475,218.193 130.439,218.270 130.314 C 218.348 130.189,218.056 129.706,217.622 129.241 C 217.188 128.776,216.878 128.261,216.933 128.097 C 216.988 127.932,216.800 127.565,216.516 127.281 C 215.920 126.685,215.701 125.212,216.207 125.212 C 216.466 125.212,216.465 125.133,216.204 124.873 C 215.833 124.501,215.734 123.966,216.076 124.177 C 216.193 124.250,216.274 123.906,216.255 123.415 C 216.236 122.923,216.358 122.266,216.525 121.955 C 216.692 121.643,216.866 121.229,216.913 121.034 C 217.080 120.332,217.201 119.960,217.488 119.263 C 217.649 118.874,217.724 118.459,217.654 118.341 C 217.585 118.223,217.726 118.050,217.969 117.957 C 218.212 117.864,218.340 117.674,218.254 117.534 C 218.167 117.395,218.239 117.280,218.414 117.280 C 218.588 117.280,218.652 117.153,218.555 116.997 C 218.459 116.841,218.511 116.714,218.671 116.714 C 218.831 116.714,218.889 116.523,218.799 116.289 C 218.695 116.016,218.805 115.864,219.108 115.864 C 219.368 115.864,219.507 115.745,219.417 115.600 C 219.328 115.455,219.386 115.255,219.547 115.156 C 219.708 115.056,219.766 114.856,219.676 114.711 C 219.587 114.566,219.744 114.446,220.026 114.443 C 220.381 114.440,220.431 114.371,220.190 114.218 C 219.933 114.054,219.992 113.869,220.415 113.506 C 220.730 113.237,220.911 112.892,220.817 112.740 C 220.723 112.589,220.837 112.465,221.069 112.465 C 221.493 112.465,221.979 111.479,221.861 110.857 C 221.826 110.674,221.949 110.431,222.133 110.318 C 222.362 110.175,222.392 110.235,222.227 110.509 C 222.024 110.847,222.059 110.848,222.464 110.520 C 222.726 110.308,222.858 110.001,222.758 109.839 C 222.655 109.673,222.712 109.628,222.888 109.738 C 223.184 109.920,223.979 108.864,223.862 108.444 C 223.832 108.336,224.134 107.991,224.533 107.676 C 224.933 107.362,225.179 106.974,225.080 106.813 C 224.973 106.640,225.078 106.590,225.339 106.691 C 225.615 106.797,225.779 106.703,225.779 106.439 C 225.779 106.208,225.969 105.861,226.201 105.668 C 226.433 105.476,226.551 105.202,226.463 105.060 C 226.375 104.918,226.472 104.837,226.679 104.880 C 226.892 104.924,227.035 104.735,227.011 104.442 C 226.987 104.151,227.114 103.983,227.304 104.056 C 227.834 104.259,228.921 103.231,228.723 102.713 C 228.604 102.404,228.673 102.307,228.938 102.409 C 229.157 102.493,229.970 101.964,230.785 101.209 C 231.587 100.466,232.700 99.495,233.259 99.051 C 233.818 98.606,234.191 98.107,234.088 97.940 C 233.967 97.744,234.085 97.708,234.422 97.837 C 234.796 97.981,235.164 97.793,235.734 97.169 C 236.170 96.692,236.562 96.314,236.606 96.329 C 236.907 96.435,238.247 95.702,238.122 95.500 C 238.036 95.361,238.188 95.266,238.459 95.287 C 238.732 95.308,238.917 95.158,238.874 94.951 C 238.831 94.744,238.918 94.651,239.067 94.743 C 239.217 94.835,239.905 94.595,240.596 94.209 C 241.288 93.823,241.954 93.597,242.077 93.708 C 242.200 93.819,242.217 93.680,242.116 93.399 C 241.998 93.070,242.042 92.956,242.240 93.078 C 242.600 93.300,243.776 92.760,244.704 91.946 C 245.335 91.393,245.350 91.392,245.146 91.924 C 244.957 92.415,244.983 92.429,245.384 92.059 C 245.631 91.830,245.772 91.542,245.697 91.419 C 245.623 91.296,245.910 91.283,246.336 91.390 C 246.879 91.526,247.051 91.488,246.911 91.263 C 246.784 91.056,246.870 91.001,247.152 91.110 C 247.394 91.203,247.592 91.149,247.592 90.990 C 247.592 90.831,247.911 90.736,248.300 90.779 C 248.690 90.822,249.008 90.747,249.008 90.613 C 249.008 90.478,249.104 90.389,249.221 90.415 C 249.739 90.528,250.970 89.996,250.806 89.730 C 250.687 89.538,250.891 89.503,251.398 89.630 C 251.989 89.778,252.120 89.738,251.952 89.459 C 251.781 89.174,251.822 89.166,252.141 89.422 C 252.453 89.673,252.816 89.657,253.683 89.354 C 254.306 89.136,254.982 89.019,255.185 89.093 C 255.388 89.168,255.476 89.103,255.380 88.949 C 255.284 88.792,255.558 88.653,256.003 88.632 C 257.600 88.560,258.073 88.455,258.548 88.070 C 258.871 87.808,258.961 87.795,258.820 88.031 C 258.671 88.278,258.831 88.385,259.348 88.385 C 259.756 88.385,260.018 88.269,259.930 88.127 C 259.842 87.985,260.122 87.907,260.551 87.955 C 260.980 88.002,261.427 87.896,261.544 87.718 C 261.698 87.483,261.826 87.503,262.010 87.787 C 262.182 88.055,262.520 88.119,263.072 87.988 C 263.517 87.882,264.008 87.820,264.164 87.849 C 264.920 87.989,303.059 88.100,303.616 87.963 L 304.257 87.806 304.182 77.968 L 304.108 68.130 283.034 68.058 C 268.566 68.008,261.848 68.079,261.600 68.284 C 261.370 68.475,261.179 68.483,261.070 68.307 C 260.966 68.140,260.573 68.124,260.074 68.267 C 259.621 68.397,259.179 68.433,259.093 68.347 C 259.007 68.261,258.738 68.357,258.493 68.560 C 258.168 68.830,257.966 68.844,257.735 68.613 C 257.521 68.399,257.254 68.388,256.897 68.578 C 256.609 68.732,256.374 68.775,256.374 68.672 C 256.374 68.570,256.183 68.645,255.949 68.839 C 255.688 69.055,255.524 69.076,255.524 68.894 C 255.524 68.716,254.931 68.806,254.040 69.120 C 253.137 69.438,252.489 69.536,252.386 69.369 C 252.285 69.206,252.091 69.246,251.906 69.468 C 251.736 69.674,251.142 69.820,250.586 69.794 C 249.818 69.758,249.574 69.859,249.571 70.213 C 249.567 70.582,249.516 70.600,249.323 70.297 C 249.134 69.998,248.948 69.984,248.478 70.236 C 248.147 70.413,247.871 70.458,247.866 70.336 C 247.861 70.213,247.656 70.368,247.409 70.680 C 247.103 71.067,246.919 71.136,246.829 70.897 C 246.728 70.627,246.510 70.644,245.884 70.967 C 245.437 71.199,244.873 71.388,244.632 71.388 C 244.390 71.388,244.193 71.504,244.193 71.645 C 244.193 71.786,243.938 71.835,243.626 71.753 C 243.297 71.667,243.059 71.745,243.059 71.938 C 243.059 72.122,242.932 72.193,242.776 72.096 C 242.620 72.000,242.493 72.052,242.493 72.212 C 242.493 72.372,242.302 72.430,242.068 72.340 C 241.834 72.251,241.643 72.297,241.643 72.444 C 241.643 72.590,241.356 72.687,241.006 72.658 C 240.655 72.630,240.305 72.683,240.227 72.777 C 239.848 73.230,238.244 73.939,238.244 73.654 C 238.244 73.480,238.114 73.418,237.956 73.516 C 237.797 73.613,237.732 73.798,237.811 73.925 C 237.890 74.053,237.796 74.151,237.603 74.144 C 236.691 74.112,236.243 74.246,236.402 74.504 C 236.499 74.660,236.309 74.788,235.980 74.788 C 235.247 74.788,233.711 75.553,233.711 75.919 C 233.711 76.066,233.499 76.105,233.240 76.005 C 232.925 75.884,232.836 75.933,232.971 76.153 C 233.104 76.367,233.021 76.422,232.734 76.312 C 232.492 76.219,232.295 76.279,232.295 76.446 C 232.295 76.612,231.785 76.901,231.161 77.087 C 230.538 77.274,230.028 77.534,230.028 77.665 C 230.028 77.796,229.914 77.872,229.773 77.833 C 229.633 77.794,229.538 77.838,229.561 77.931 C 229.626 78.190,228.860 79.037,228.560 79.037 C 228.415 79.037,228.382 78.897,228.488 78.725 C 228.621 78.509,228.493 78.514,228.072 78.739 C 227.732 78.921,227.550 79.206,227.659 79.382 C 227.788 79.591,227.689 79.636,227.373 79.515 C 227.036 79.385,226.814 79.520,226.636 79.962 C 226.496 80.310,226.373 80.434,226.364 80.237 C 226.337 79.704,224.080 81.282,224.075 81.837 C 224.072 82.155,224.005 82.191,223.855 81.955 C 223.713 81.732,223.497 81.706,223.222 81.880 C 222.992 82.026,222.932 82.148,223.088 82.153 C 223.402 82.162,222.237 82.892,221.459 83.173 C 221.186 83.272,220.963 83.529,220.963 83.744 C 220.963 83.960,220.764 84.136,220.522 84.136 C 220.279 84.136,220.159 84.263,220.255 84.419 C 220.351 84.575,220.290 84.703,220.118 84.703 C 219.947 84.703,219.533 84.958,219.198 85.269 C 218.864 85.581,218.423 85.836,218.219 85.836 C 218.014 85.836,217.847 85.972,217.847 86.139 C 217.847 86.533,217.277 87.090,216.616 87.340 C 216.329 87.449,216.027 87.793,215.946 88.103 C 215.864 88.414,215.678 88.669,215.531 88.669 C 215.384 88.669,215.343 88.541,215.439 88.385 C 215.897 87.644,215.240 88.217,214.670 89.055 C 214.314 89.579,213.927 90.025,213.810 90.047 C 213.693 90.068,213.628 90.117,213.666 90.156 C 213.703 90.195,213.066 90.909,212.249 91.743 C 211.433 92.576,210.765 93.373,210.765 93.513 C 210.765 93.653,210.773 93.848,210.783 93.945 C 210.793 94.043,210.511 94.267,210.158 94.443 C 209.804 94.619,209.445 95.057,209.361 95.416 C 209.276 95.774,209.134 96.028,209.045 95.980 C 208.861 95.880,207.932 96.750,207.932 97.022 C 207.932 97.120,208.079 97.110,208.259 96.998 C 208.463 96.872,208.509 96.921,208.381 97.128 C 208.268 97.310,208.072 97.395,207.945 97.317 C 207.591 97.098,207.005 97.946,207.243 98.332 C 207.366 98.531,207.333 98.597,207.164 98.492 C 207.005 98.394,206.647 98.566,206.368 98.874 C 206.079 99.193,206.002 99.433,206.188 99.433 C 206.735 99.433,206.555 99.848,205.878 100.148 C 205.523 100.306,205.260 100.657,205.283 100.943 C 205.307 101.224,205.259 101.387,205.177 101.306 C 204.971 101.100,203.642 103.104,203.807 103.372 C 203.881 103.491,203.755 103.588,203.529 103.588 C 203.302 103.588,203.116 103.449,203.116 103.279 C 203.116 103.108,202.822 102.651,202.462 102.263 C 202.102 101.875,201.752 101.431,201.683 101.275 C 201.614 101.119,201.467 101.022,201.356 101.059 C 201.245 101.096,201.234 100.916,201.333 100.658 C 201.453 100.346,201.403 100.258,201.185 100.393 C 200.975 100.523,200.913 100.447,201.014 100.186 C 201.100 99.960,200.926 99.603,200.626 99.392 C 200.327 99.181,200.000 98.754,199.901 98.442 C 199.802 98.130,199.223 97.332,198.614 96.667 C 198.006 96.002,197.435 95.269,197.346 95.038 C 197.258 94.807,197.067 94.618,196.923 94.618 C 196.779 94.618,196.581 94.408,196.483 94.153 C 196.326 93.745,196.366 93.736,196.807 94.082 C 197.263 94.440,197.273 94.431,196.920 93.980 C 196.706 93.708,196.433 93.484,196.313 93.484 C 195.830 93.484,194.332 91.832,194.685 91.690 C 194.903 91.602,194.849 91.537,194.547 91.524 C 194.274 91.511,194.051 91.366,194.051 91.201 C 194.051 91.036,193.924 90.980,193.768 91.076 C 193.612 91.173,193.484 91.084,193.484 90.879 C 193.484 90.674,193.038 90.097,192.493 89.596 C 191.948 89.096,191.501 88.555,191.501 88.394 C 191.501 88.233,191.374 88.086,191.218 88.067 C 191.062 88.047,190.818 88.015,190.675 87.996 C 190.532 87.976,190.309 87.844,190.179 87.702 C 190.039 87.549,190.116 87.540,190.368 87.681 C 190.602 87.810,190.443 87.558,190.014 87.121 C 189.586 86.683,189.235 86.199,189.235 86.046 C 189.235 85.892,189.044 85.925,188.810 86.119 C 188.416 86.446,188.259 86.314,188.360 85.740 C 188.383 85.610,188.147 85.437,187.836 85.356 C 187.525 85.274,187.194 84.967,187.101 84.672 C 187.007 84.377,186.652 83.989,186.312 83.811 C 185.972 83.633,185.592 83.314,185.468 83.103 C 185.183 82.621,184.605 82.593,184.848 83.074 C 184.947 83.268,184.753 83.077,184.417 82.649 C 184.080 82.220,183.633 81.870,183.423 81.870 C 183.213 81.870,182.958 81.608,182.856 81.288 C 182.700 80.794,182.603 80.762,182.216 81.076 C 181.926 81.311,181.834 81.323,181.962 81.110 C 182.224 80.673,181.089 79.878,180.516 80.098 C 180.257 80.197,180.150 80.148,180.255 79.978 C 180.354 79.819,180.089 79.510,179.669 79.292 C 179.248 79.074,178.674 78.704,178.394 78.470 C 178.114 78.237,177.839 78.109,177.783 78.187 C 177.726 78.265,177.427 78.100,177.119 77.821 C 176.811 77.542,176.447 77.339,176.310 77.370 C 175.871 77.471,175.069 77.003,175.231 76.741 C 175.317 76.601,175.253 76.487,175.088 76.487 C 174.465 76.487,174.357 76.436,174.136 76.042 C 174.011 75.820,173.725 75.637,173.499 75.637 C 173.273 75.637,173.088 75.494,173.088 75.319 C 173.088 75.112,172.921 75.137,172.609 75.390 C 172.202 75.720,172.165 75.720,172.365 75.388 C 172.527 75.118,172.479 75.038,172.209 75.128 C 171.994 75.199,171.662 75.120,171.471 74.952 C 170.589 74.173,170.326 74.017,169.584 73.831 C 169.068 73.701,168.854 73.733,168.971 73.923 C 169.078 74.096,168.973 74.146,168.713 74.046 C 168.472 73.954,168.346 73.764,168.432 73.625 C 168.586 73.375,168.318 73.292,167.358 73.295 C 167.089 73.296,166.928 73.199,167.002 73.080 C 167.178 72.795,166.316 72.471,165.962 72.690 C 165.811 72.783,165.448 72.644,165.156 72.380 C 164.864 72.115,164.503 71.975,164.353 72.067 C 164.204 72.159,164.007 72.038,163.914 71.798 C 163.785 71.461,163.509 71.406,162.711 71.555 C 162.030 71.683,161.736 71.650,161.854 71.460 C 162.045 71.150,161.179 70.832,160.127 70.825 C 159.777 70.823,159.490 70.694,159.490 70.538 C 159.490 70.382,159.355 70.255,159.190 70.255 C 159.025 70.255,158.969 70.382,159.065 70.537 C 159.180 70.724,158.994 70.727,158.515 70.544 C 158.116 70.393,157.786 70.361,157.782 70.474 C 157.777 70.587,157.642 70.455,157.483 70.181 C 157.317 69.897,156.864 69.684,156.429 69.688 C 155.026 69.698,153.812 69.464,153.369 69.097 C 153.011 68.799,152.887 68.805,152.687 69.129 C 152.483 69.459,152.355 69.445,151.906 69.039 C 151.612 68.772,151.314 68.610,151.245 68.679 C 150.998 68.926,149.567 69.081,149.713 68.845 C 149.795 68.712,149.383 68.610,148.798 68.619 C 148.213 68.627,147.511 68.540,147.240 68.424 C 146.968 68.308,145.989 68.264,145.063 68.327 C 144.137 68.390,143.441 68.343,143.515 68.222 C 143.590 68.101,134.403 67.998,123.100 67.992 L 102.550 67.982 102.550 78.049 M123.159 151.771 C 134.260 151.812,152.426 151.812,163.527 151.771 C 174.628 151.729,165.545 151.696,143.343 151.696 C 121.140 151.696,112.057 151.729,123.159 151.771 " stroke="none" fill="#241c24" fill-rule="evenodd"></path><path id="path1" d="M147.440 68.539 C 147.579 68.764,149.255 68.687,149.497 68.444 C 149.609 68.333,149.169 68.273,148.521 68.311 C 147.873 68.349,147.387 68.452,147.440 68.539 M153.258 69.009 C 153.258 69.273,154.378 69.655,154.512 69.438 C 154.598 69.300,154.350 69.126,153.963 69.052 C 153.575 68.978,153.258 68.959,153.258 69.009 M157.067 69.996 C 156.930 70.218,156.971 70.270,157.180 70.140 C 157.360 70.029,157.507 70.094,157.507 70.285 C 157.507 70.476,157.584 70.556,157.678 70.462 C 157.772 70.368,158.133 70.399,158.480 70.531 C 158.939 70.706,159.112 70.668,159.112 70.393 C 159.112 70.184,158.911 70.021,158.664 70.031 C 158.417 70.040,158.005 69.958,157.748 69.849 C 157.483 69.736,157.188 69.800,157.067 69.996 M159.490 70.557 C 159.490 70.702,159.798 70.822,160.175 70.822 C 160.552 70.822,161.094 70.895,161.379 70.985 C 161.817 71.122,161.829 71.103,161.454 70.858 C 160.824 70.446,159.490 70.242,159.490 70.557 M246.742 70.680 C 246.742 70.914,246.856 71.105,246.995 71.105 C 247.134 71.105,247.322 70.914,247.411 70.680 C 247.511 70.421,247.412 70.255,247.158 70.255 C 246.929 70.255,246.742 70.446,246.742 70.680 M161.937 71.246 C 161.827 71.533,161.951 71.671,162.315 71.671 C 163.020 71.671,163.296 71.213,162.723 70.993 C 162.122 70.762,162.123 70.762,161.937 71.246 M165.010 72.234 C 165.264 72.514,165.772 72.725,166.139 72.703 C 166.971 72.653,166.840 72.512,165.556 72.070 C 164.596 71.740,164.571 71.748,165.010 72.234 M167.422 72.908 C 167.422 73.111,167.613 73.277,167.847 73.277 C 168.081 73.277,168.272 73.184,168.272 73.071 C 168.272 72.958,168.081 72.792,167.847 72.702 C 167.603 72.609,167.422 72.696,167.422 72.908 M175.483 76.466 C 175.586 76.634,175.511 76.771,175.317 76.771 C 175.122 76.771,175.209 76.950,175.509 77.170 C 176.034 77.554,176.487 77.524,176.487 77.105 C 176.487 76.996,176.219 76.739,175.891 76.534 C 175.563 76.330,175.379 76.299,175.483 76.466 M231.531 76.385 C 231.647 76.501,231.334 76.731,230.836 76.896 C 230.337 77.061,229.878 77.387,229.816 77.620 C 229.742 77.895,229.785 77.935,229.936 77.732 C 230.065 77.560,230.648 77.263,231.232 77.073 C 232.437 76.680,232.485 76.621,231.808 76.361 C 231.540 76.258,231.415 76.269,231.531 76.385 M177.228 77.744 C 177.314 77.968,177.575 78.078,177.809 77.988 C 178.155 77.855,178.164 77.780,177.857 77.585 C 177.292 77.227,177.053 77.288,177.228 77.744 M227.986 78.448 C 227.530 78.893,227.542 78.920,228.184 78.908 C 228.560 78.901,229.002 78.737,229.167 78.543 C 229.332 78.350,229.382 78.253,229.278 78.329 C 229.174 78.404,228.950 78.355,228.780 78.220 C 228.592 78.072,228.279 78.162,227.986 78.448 M178.605 78.646 C 178.857 78.898,179.150 79.018,179.255 78.914 C 179.360 78.809,179.258 78.604,179.029 78.459 C 178.359 78.036,178.107 78.147,178.605 78.646 M179.763 79.124 C 179.864 79.387,180.069 79.603,180.217 79.603 C 180.365 79.603,180.408 79.731,180.312 79.887 C 180.090 80.245,180.465 80.245,181.020 79.887 C 181.371 79.660,181.375 79.611,181.042 79.608 C 180.821 79.605,180.401 79.387,180.109 79.124 C 179.611 78.673,179.590 78.673,179.763 79.124 M225.645 79.847 C 225.714 79.916,225.549 80.158,225.279 80.384 C 224.927 80.679,225.003 80.669,225.545 80.349 C 226.117 80.011,226.338 79.987,226.444 80.248 C 226.527 80.453,226.593 80.400,226.607 80.117 C 226.621 79.810,226.430 79.654,226.074 79.680 C 225.770 79.703,225.576 79.778,225.645 79.847 M224.079 80.989 C 224.079 81.180,223.964 81.265,223.822 81.178 C 223.681 81.090,223.638 81.297,223.727 81.636 L 223.888 82.253 224.132 81.595 C 224.265 81.234,224.308 80.871,224.227 80.790 C 224.146 80.709,224.079 80.798,224.079 80.989 M184.434 82.747 C 184.593 83.044,184.789 83.286,184.871 83.286 C 184.952 83.286,184.947 83.170,184.859 83.027 C 184.771 82.885,184.856 82.716,185.048 82.652 C 185.239 82.588,185.115 82.462,184.771 82.372 C 184.228 82.230,184.184 82.279,184.434 82.747 M221.932 82.536 C 221.834 82.791,221.620 82.917,221.456 82.816 C 221.274 82.703,221.244 82.770,221.378 82.986 C 221.547 83.261,221.697 83.240,222.042 82.895 C 222.287 82.650,222.403 82.365,222.299 82.261 C 222.195 82.157,222.030 82.281,221.932 82.536 M219.547 84.419 C 219.547 84.575,219.360 84.703,219.132 84.703 C 218.904 84.703,218.580 84.958,218.414 85.269 C 218.199 85.670,218.199 85.836,218.413 85.836 C 218.579 85.836,218.788 85.645,218.877 85.412 C 218.966 85.180,219.154 85.060,219.293 85.146 C 219.433 85.232,219.547 85.168,219.547 85.003 C 219.547 84.838,219.745 84.703,219.988 84.703 C 220.231 84.703,220.351 84.575,220.255 84.419 C 220.159 84.263,219.960 84.136,219.813 84.136 C 219.667 84.136,219.547 84.263,219.547 84.419 M187.575 84.961 C 187.302 85.130,187.368 85.233,187.823 85.352 C 188.164 85.441,188.364 85.642,188.268 85.797 C 188.171 85.953,188.213 86.154,188.361 86.246 C 188.509 86.337,188.708 86.284,188.805 86.127 C 189.073 85.694,188.014 84.690,187.575 84.961 M217.033 86.365 C 216.460 86.806,216.429 86.908,216.821 87.058 C 217.121 87.173,217.280 87.084,217.280 86.802 C 217.280 86.564,217.408 86.448,217.564 86.544 C 217.720 86.640,217.847 86.520,217.847 86.277 C 217.847 85.734,217.855 85.733,217.033 86.365 M263.754 87.810 C 263.569 87.924,263.807 88.026,264.289 88.039 C 264.766 88.053,265.156 88.024,265.156 87.974 C 265.156 87.755,264.053 87.625,263.754 87.810 M259.951 88.161 C 260.028 88.284,260.345 88.385,260.657 88.385 C 260.968 88.385,261.149 88.266,261.059 88.120 C 260.969 87.974,260.652 87.873,260.354 87.896 C 260.056 87.918,259.875 88.037,259.951 88.161 M191.701 88.579 C 191.623 88.706,191.897 89.056,192.310 89.357 L 193.059 89.904 192.496 89.216 C 192.186 88.837,191.912 88.487,191.887 88.437 C 191.862 88.388,191.778 88.452,191.701 88.579 M254.887 88.888 C 254.614 88.946,254.391 89.116,254.391 89.266 C 254.391 89.434,254.581 89.440,254.887 89.283 C 255.159 89.143,255.542 89.086,255.737 89.155 C 255.931 89.225,256.091 89.165,256.091 89.023 C 256.091 88.751,255.722 88.710,254.887 88.888 M153.541 89.476 C 154.213 89.870,155.524 90.120,155.524 89.854 C 155.524 89.722,155.362 89.613,155.165 89.613 C 154.967 89.613,154.426 89.526,153.961 89.420 C 153.426 89.298,153.272 89.319,153.541 89.476 M193.414 90.507 C 193.489 90.894,193.662 91.142,193.801 91.056 C 193.943 90.968,193.925 90.662,193.759 90.351 C 193.362 89.610,193.253 89.660,193.414 90.507 M157.919 90.347 C 158.008 90.491,157.856 90.657,157.581 90.717 C 157.284 90.782,157.454 90.885,158.002 90.973 C 158.878 91.113,158.900 91.095,158.454 90.602 C 157.959 90.055,157.646 89.906,157.919 90.347 M159.444 91.286 C 159.584 91.426,159.917 91.573,160.184 91.612 C 160.450 91.651,160.754 91.816,160.858 91.979 C 161.148 92.430,162.323 92.731,162.323 92.354 C 162.323 92.178,162.195 92.114,162.038 92.211 C 161.881 92.308,161.676 92.189,161.583 91.946 C 161.490 91.703,161.300 91.575,161.160 91.661 C 161.021 91.748,160.907 91.698,160.907 91.550 C 160.907 91.403,160.520 91.226,160.048 91.156 C 159.538 91.082,159.293 91.134,159.444 91.286 M211.468 91.974 C 210.912 92.822,211.289 92.819,212.095 91.969 C 212.542 91.497,212.602 91.313,212.309 91.313 C 212.085 91.313,211.706 91.610,211.468 91.974 M245.780 91.550 C 245.916 91.769,245.833 91.823,245.535 91.708 C 245.286 91.613,244.920 91.733,244.719 91.975 C 244.518 92.217,244.095 92.520,243.778 92.648 C 243.320 92.834,243.300 92.886,243.680 92.900 C 243.944 92.910,244.239 92.788,244.337 92.630 C 244.435 92.472,244.634 92.415,244.779 92.505 C 244.924 92.595,245.044 92.437,245.047 92.156 C 245.050 91.745,245.101 91.722,245.304 92.043 C 245.520 92.384,245.622 92.379,245.995 92.006 C 246.419 91.581,246.343 91.218,245.828 91.218 C 245.689 91.218,245.668 91.367,245.780 91.550 M194.645 91.768 C 194.363 91.942,194.355 92.047,194.612 92.206 C 194.798 92.321,195.078 92.288,195.234 92.132 C 195.603 91.763,195.128 91.469,194.645 91.768 M210.183 93.272 C 210.152 93.389,210.112 93.617,210.092 93.778 C 210.073 93.940,209.869 94.188,209.640 94.329 C 209.019 94.713,209.397 94.855,210.084 94.495 C 210.527 94.263,210.622 94.042,210.458 93.622 C 210.337 93.313,210.213 93.155,210.183 93.272 M196.473 93.745 C 196.385 93.888,196.514 94.207,196.760 94.453 C 197.383 95.076,197.643 95.016,197.069 94.382 C 196.811 94.097,196.685 93.778,196.789 93.674 C 196.893 93.570,196.901 93.484,196.806 93.484 C 196.711 93.484,196.562 93.602,196.473 93.745 M167.139 94.580 C 167.139 95.018,168.258 96.011,168.768 96.025 C 168.962 96.030,169.122 95.907,169.122 95.751 C 169.122 95.595,168.874 95.467,168.571 95.467 C 168.269 95.467,167.822 95.184,167.580 94.838 C 167.337 94.492,167.139 94.375,167.139 94.580 M197.450 95.467 C 197.450 95.623,197.585 95.751,197.750 95.751 C 197.915 95.751,197.989 95.851,197.913 95.973 C 197.837 96.096,198.016 96.196,198.309 96.196 C 198.829 96.196,198.829 96.182,198.300 95.690 C 197.686 95.118,197.450 95.056,197.450 95.467 M209.088 95.413 C 209.075 95.617,208.946 95.711,208.801 95.621 C 208.656 95.532,208.445 95.607,208.333 95.790 C 208.205 95.997,208.251 96.046,208.455 95.919 C 208.636 95.807,208.782 95.876,208.782 96.074 C 208.782 96.336,208.866 96.347,209.097 96.115 C 209.270 95.942,209.344 95.630,209.261 95.421 C 209.140 95.118,209.105 95.116,209.088 95.413 M236.261 96.544 C 236.261 96.723,236.040 96.795,235.765 96.707 C 235.346 96.572,235.335 96.595,235.694 96.853 C 236.007 97.078,236.021 97.160,235.748 97.163 C 235.544 97.165,235.462 97.304,235.565 97.471 C 235.682 97.661,235.913 97.547,236.177 97.170 C 236.411 96.836,236.525 96.487,236.431 96.393 C 236.337 96.300,236.261 96.368,236.261 96.544 M170.596 97.273 C 170.796 97.487,171.143 97.593,171.366 97.507 C 171.679 97.387,171.648 97.303,171.226 97.138 C 170.384 96.808,170.199 96.848,170.596 97.273 M206.657 98.017 C 206.375 98.329,206.278 98.584,206.441 98.584 C 206.605 98.584,206.815 98.384,206.908 98.141 C 207.003 97.893,207.223 97.787,207.407 97.901 C 207.612 98.028,207.660 97.981,207.534 97.777 C 207.270 97.350,207.257 97.354,206.657 98.017 M234.115 97.949 C 234.202 98.036,234.134 98.274,233.963 98.479 C 233.744 98.743,233.910 98.724,234.532 98.414 C 235.593 97.885,235.593 97.886,234.684 97.833 C 234.284 97.810,234.028 97.862,234.115 97.949 M200.078 98.584 C 200.053 98.913,200.210 99.150,200.453 99.150 C 200.782 99.150,200.806 99.031,200.567 98.584 C 200.400 98.272,200.231 98.017,200.192 98.017 C 200.153 98.017,200.101 98.272,200.078 98.584 M174.243 99.530 C 174.184 100.166,175.228 101.049,175.585 100.666 C 175.878 100.353,175.835 100.283,175.349 100.283 C 174.971 100.283,174.828 100.164,174.956 99.956 C 175.076 99.763,175.035 99.706,174.856 99.816 C 174.689 99.919,174.488 99.843,174.409 99.648 C 174.330 99.452,174.256 99.399,174.243 99.530 M205.666 99.717 C 205.666 99.873,205.857 100.000,206.091 100.000 C 206.324 100.000,206.516 99.873,206.516 99.717 C 206.516 99.561,206.324 99.433,206.091 99.433 C 205.857 99.433,205.666 99.561,205.666 99.717 M230.457 101.620 L 229.960 102.408 230.616 101.778 C 230.977 101.432,231.200 101.078,231.113 100.991 C 231.026 100.903,230.731 101.187,230.457 101.620 M176.263 101.325 C 175.849 101.491,176.325 102.266,176.840 102.266 C 177.013 102.266,177.000 102.118,176.808 101.886 C 176.634 101.677,176.576 101.422,176.679 101.320 C 176.888 101.110,176.795 101.111,176.263 101.325 M202.319 102.125 C 203.088 103.009,203.145 103.010,202.735 102.127 C 202.555 101.739,202.249 101.420,202.056 101.419 C 201.846 101.417,201.953 101.703,202.319 102.125 M227.009 104.741 C 226.967 105.466,226.989 105.481,227.354 104.983 C 227.568 104.689,227.677 104.340,227.595 104.208 C 227.307 103.742,227.053 103.973,227.009 104.741 M180.367 105.933 C 180.463 106.301,180.742 106.508,181.124 106.496 C 181.663 106.478,181.673 106.454,181.211 106.272 C 180.927 106.160,180.714 105.949,180.737 105.803 C 180.760 105.658,180.652 105.496,180.497 105.444 C 180.340 105.392,180.282 105.609,180.367 105.933 M181.711 107.110 C 181.486 107.473,182.423 108.832,183.020 109.009 C 183.250 109.077,183.181 108.921,182.861 108.650 C 182.388 108.248,182.376 108.195,182.790 108.325 C 183.570 108.570,183.369 108.233,182.549 107.921 C 182.066 107.737,181.868 107.496,181.974 107.220 C 182.162 106.729,181.991 106.657,181.711 107.110 M224.646 107.807 C 224.646 108.050,224.527 108.175,224.382 108.086 C 224.237 107.996,224.045 108.041,223.956 108.186 C 223.866 108.330,223.999 108.419,224.251 108.382 C 224.778 108.304,225.417 107.365,224.943 107.365 C 224.780 107.365,224.646 107.564,224.646 107.807 M184.233 110.354 C 184.137 110.603,184.326 111.073,184.669 111.438 C 185.002 111.792,185.188 112.168,185.083 112.273 C 184.978 112.378,185.049 112.465,185.241 112.465 C 185.663 112.465,185.387 111.331,184.862 110.907 C 184.669 110.751,184.565 110.464,184.630 110.269 C 184.804 109.754,184.433 109.834,184.233 110.354 M222.060 110.269 C 221.894 110.595,221.940 111.569,222.117 111.460 C 222.242 111.383,222.325 111.068,222.301 110.759 C 222.264 110.261,222.166 110.062,222.060 110.269 M185.647 113.172 C 185.647 113.405,185.912 113.819,186.237 114.092 C 186.814 114.579,186.817 114.577,186.352 114.023 C 186.090 113.711,185.878 113.350,185.879 113.220 C 185.881 113.090,185.830 112.931,185.765 112.866 C 185.700 112.801,185.647 112.939,185.647 113.172 M218.869 116.341 C 218.913 116.526,218.802 116.726,218.624 116.785 C 218.419 116.854,218.404 116.958,218.583 117.069 C 218.739 117.165,219.029 116.984,219.228 116.666 C 219.426 116.348,219.463 116.166,219.309 116.261 C 219.155 116.356,218.975 116.338,218.909 116.220 C 218.843 116.102,218.825 116.157,218.869 116.341 M187.420 116.501 C 187.800 117.169,188.473 117.847,188.756 117.847 C 188.911 117.847,188.752 117.599,188.403 117.295 C 188.053 116.992,187.850 116.610,187.951 116.446 C 188.052 116.282,187.929 116.147,187.677 116.147 C 187.392 116.147,187.295 116.281,187.420 116.501 M217.826 117.918 C 217.532 118.907,217.594 119.274,217.987 118.881 C 218.474 118.394,218.550 117.847,218.130 117.847 C 217.975 117.847,217.838 117.879,217.826 117.918 M217.259 119.618 C 217.079 120.204,217.100 120.680,217.306 120.680 C 217.448 120.680,217.564 120.627,217.564 120.561 C 217.564 120.496,217.641 120.241,217.736 119.995 C 217.830 119.748,217.767 119.547,217.594 119.547 C 217.422 119.547,217.271 119.579,217.259 119.618 M190.582 124.008 C 190.364 124.454,190.325 126.193,190.537 125.985 C 190.659 125.865,190.795 125.323,190.840 124.781 C 190.916 123.849,190.812 123.536,190.582 124.008 M215.941 126.360 C 215.898 126.926,216.274 127.111,216.552 126.661 C 216.638 126.523,216.544 126.274,216.345 126.109 C 216.073 125.883,215.972 125.945,215.941 126.360 M188.834 129.077 C 188.581 129.735,188.727 129.753,189.356 129.142 C 189.807 128.704,189.824 128.612,189.457 128.612 C 189.212 128.612,188.932 128.821,188.834 129.077 M219.164 130.462 C 219.248 130.679,219.558 130.934,219.855 131.028 C 220.151 131.122,220.573 131.378,220.792 131.598 C 221.136 131.941,221.215 131.936,221.357 131.564 C 221.449 131.327,221.412 131.201,221.277 131.284 C 221.141 131.368,220.576 131.129,220.022 130.752 C 219.420 130.344,219.074 130.227,219.164 130.462 M121.246 131.733 C 121.246 131.914,132.231 132.011,152.550 132.011 C 173.401 132.011,183.853 131.916,183.853 131.726 C 183.853 131.535,173.406 131.442,152.550 131.447 C 132.236 131.452,121.246 131.552,121.246 131.733 M222.137 131.736 C 222.671 132.045,304.230 132.138,304.503 131.830 C 304.597 131.724,304.515 131.729,304.320 131.841 C 304.125 131.953,303.966 131.909,303.966 131.743 C 303.966 131.531,291.753 131.445,262.819 131.454 C 236.620 131.462,221.841 131.564,222.137 131.736 M115.368 132.778 C 114.665 132.913,114.537 133.283,115.085 133.598 C 115.280 133.710,115.340 133.693,115.220 133.561 C 115.099 133.428,115.354 133.163,115.787 132.972 C 116.594 132.614,116.483 132.563,115.368 132.778 M304.025 133.053 C 303.788 133.148,303.752 133.315,303.924 133.526 C 304.069 133.706,304.251 134.108,304.328 134.419 C 304.408 134.746,304.481 134.535,304.500 133.924 C 304.518 133.339,304.501 132.871,304.462 132.884 C 304.423 132.896,304.226 132.972,304.025 133.053 M110.542 135.420 C 110.113 136.106,110.111 136.261,110.529 136.261 C 110.711 136.261,110.775 136.177,110.673 136.074 C 110.570 135.972,110.631 135.714,110.808 135.501 C 110.984 135.288,111.074 135.059,111.007 134.992 C 110.940 134.925,110.731 135.117,110.542 135.420 M296.038 147.639 C 296.036 147.899,295.875 148.176,295.680 148.254 C 295.462 148.342,295.510 148.406,295.805 148.420 C 296.424 148.448,296.632 148.098,296.303 147.579 C 296.084 147.233,296.042 147.242,296.038 147.639 M102.489 148.352 C 102.278 148.767,102.401 149.384,102.715 149.489 C 102.884 149.545,103.004 149.335,102.981 149.022 C 102.933 148.375,102.664 148.008,102.489 148.352 M289.657 150.713 C 289.559 150.871,289.382 150.941,289.263 150.867 C 289.144 150.793,289.046 150.907,289.046 151.119 C 289.046 151.421,289.158 151.434,289.566 151.180 C 289.851 151.001,290.085 150.758,290.085 150.640 C 290.085 150.336,289.867 150.373,289.657 150.713 M286.966 151.420 C 286.682 151.763,286.699 151.841,287.059 151.841 C 287.588 151.841,287.934 151.379,287.572 151.156 C 287.431 151.069,287.159 151.188,286.966 151.420 M102.735 151.487 C 102.663 151.604,121.000 151.700,143.484 151.700 C 165.969 151.700,184.306 151.604,184.234 151.487 C 184.162 151.370,165.824 151.275,143.484 151.275 C 121.144 151.275,102.807 151.370,102.735 151.487 M222.946 151.487 C 222.946 151.680,244.437 151.678,273.513 151.484 C 279.589 151.443,270.698 151.379,253.754 151.342 C 236.809 151.305,222.946 151.370,222.946 151.487 M220.491 152.040 C 220.491 152.242,220.597 152.408,220.727 152.408 C 220.857 152.408,220.963 152.273,220.963 152.108 C 220.963 151.943,221.091 151.887,221.246 151.983 C 221.402 152.079,221.530 152.031,221.530 151.876 C 221.530 151.720,221.296 151.611,221.010 151.632 C 220.725 151.654,220.491 151.837,220.491 152.040 M219.263 152.691 C 219.039 152.830,218.949 153.038,219.064 153.153 C 219.179 153.268,219.422 153.213,219.603 153.031 C 220.031 152.603,219.793 152.364,219.263 152.691 M218.269 153.546 C 218.171 153.704,217.969 153.758,217.820 153.666 C 217.672 153.574,217.568 153.604,217.590 153.732 C 217.702 154.375,217.532 154.971,217.280 154.816 C 217.125 154.720,216.997 154.776,216.997 154.941 C 216.997 155.429,217.567 155.283,217.757 154.745 C 217.854 154.472,218.125 154.026,218.359 153.754 C 218.593 153.481,218.709 153.258,218.616 153.258 C 218.523 153.258,218.367 153.387,218.269 153.546 M190.482 158.791 C 190.482 159.176,190.583 159.490,190.706 159.490 C 190.830 159.490,190.893 159.238,190.846 158.931 C 190.717 158.088,190.482 157.998,190.482 158.791 M187.141 167.587 C 187.035 167.863,187.098 167.993,187.305 167.924 C 187.729 167.783,187.962 167.139,187.589 167.139 C 187.437 167.139,187.235 167.341,187.141 167.587 M219.627 168.538 C 219.800 168.995,220.031 169.314,220.142 169.246 C 220.370 169.105,219.789 167.711,219.501 167.708 C 219.397 167.706,219.454 168.080,219.627 168.538 M186.176 169.364 C 185.881 169.551,185.892 169.666,186.231 169.947 C 186.583 170.240,186.646 170.200,186.609 169.710 C 186.585 169.386,186.560 169.124,186.554 169.126 C 186.549 169.129,186.379 169.235,186.176 169.364 M223.587 174.983 C 223.862 175.055,224.030 175.205,223.961 175.317 C 223.892 175.428,224.091 175.539,224.404 175.563 C 224.868 175.598,224.910 175.531,224.633 175.196 C 224.446 174.972,224.022 174.802,223.691 174.820 C 223.207 174.847,223.186 174.879,223.587 174.983 M181.360 176.261 C 180.877 176.743,180.939 177.055,181.516 177.049 C 181.939 177.046,181.950 177.005,181.586 176.771 C 181.204 176.523,181.381 176.365,181.941 176.454 C 182.057 176.472,182.153 176.360,182.153 176.204 C 182.153 175.820,181.773 175.847,181.360 176.261 M225.175 176.584 C 225.349 176.793,225.434 177.021,225.365 177.090 C 225.296 177.159,225.483 177.216,225.781 177.216 C 226.284 177.216,226.290 177.179,225.866 176.710 C 225.336 176.125,224.698 176.009,225.175 176.584 M226.259 177.803 C 226.445 177.878,226.519 178.144,226.423 178.393 C 226.308 178.694,226.361 178.778,226.581 178.642 C 226.765 178.528,226.912 178.591,226.912 178.784 C 226.912 178.975,226.986 179.057,227.077 178.967 C 227.328 178.715,226.655 177.617,226.265 177.643 C 226.002 177.660,226.001 177.698,226.259 177.803 M229.302 180.901 C 229.549 181.147,229.666 181.486,229.562 181.653 C 229.456 181.825,229.506 181.876,229.677 181.770 C 229.844 181.667,230.045 181.743,230.123 181.939 C 230.235 182.216,230.272 182.217,230.289 181.944 C 230.315 181.536,229.448 180.453,229.095 180.453 C 228.963 180.453,229.056 180.655,229.302 180.901 M174.424 183.284 C 174.207 183.595,173.957 183.778,173.870 183.690 C 173.783 183.603,173.627 183.668,173.524 183.834 C 173.422 184.000,173.544 184.136,173.796 184.136 C 174.070 184.136,174.173 184.267,174.052 184.463 C 173.926 184.667,173.975 184.713,174.182 184.585 C 174.364 184.472,174.440 184.261,174.351 184.116 C 174.261 183.971,174.308 183.853,174.454 183.853 C 174.601 183.853,174.788 183.598,174.870 183.286 C 175.057 182.569,174.926 182.568,174.424 183.284 M200.244 184.127 C 199.876 184.433,199.680 184.688,199.808 184.693 C 199.936 184.698,199.834 184.909,199.582 185.161 C 199.049 185.694,199.195 185.997,199.817 185.649 C 200.254 185.405,200.280 185.340,200.288 184.490 C 200.291 184.110,200.348 184.083,200.532 184.372 C 200.714 184.660,200.808 184.609,200.926 184.160 C 201.116 183.434,201.078 183.432,200.244 184.127 M205.931 183.972 C 206.094 184.169,206.133 184.431,206.017 184.555 C 205.902 184.679,205.999 184.720,206.232 184.647 C 206.826 184.461,206.764 183.781,206.146 183.690 C 205.763 183.634,205.709 183.705,205.931 183.972 M233.064 184.718 C 233.558 185.173,234.707 185.375,234.261 184.929 C 234.033 184.700,233.620 184.514,233.344 184.514 C 233.068 184.514,232.942 184.606,233.064 184.718 M171.509 185.405 C 171.209 185.632,171.091 185.820,171.246 185.822 C 171.667 185.829,172.387 185.324,172.209 185.146 C 172.124 185.061,171.809 185.178,171.509 185.405 M168.796 187.330 C 167.864 187.946,167.529 188.332,167.654 188.647 C 167.806 189.033,167.844 189.026,167.931 188.594 C 167.986 188.320,168.149 188.168,168.293 188.257 C 168.437 188.346,168.555 188.220,168.555 187.977 C 168.555 187.734,168.722 187.535,168.926 187.535 C 169.384 187.535,170.448 186.783,170.255 186.596 C 170.177 186.521,169.520 186.851,168.796 187.330 M208.415 187.158 C 208.315 187.320,208.417 187.694,208.640 187.989 C 209.078 188.568,209.158 188.298,208.811 187.413 C 208.687 187.096,208.520 186.989,208.415 187.158 M237.000 187.372 C 237.200 187.895,237.775 188.108,238.229 187.828 C 238.483 187.671,238.496 187.550,238.274 187.412 C 238.101 187.306,237.956 187.386,237.952 187.590 C 237.946 187.818,237.833 187.771,237.654 187.465 C 237.309 186.872,236.779 186.797,237.000 187.372 M196.034 189.519 C 196.034 189.966,196.529 190.087,196.837 189.716 C 197.063 189.444,197.001 189.343,196.586 189.312 C 196.282 189.289,196.034 189.382,196.034 189.519 M241.426 189.518 C 241.516 190.026,242.458 190.781,242.700 190.539 C 242.794 190.445,242.714 190.368,242.523 190.368 C 242.326 190.368,242.264 190.216,242.380 190.014 C 242.492 189.819,242.480 189.754,242.354 189.868 C 242.227 189.983,241.950 189.855,241.738 189.585 C 241.439 189.205,241.369 189.190,241.426 189.518 M211.048 190.512 C 211.048 190.744,211.183 190.935,211.348 190.935 C 211.513 190.935,211.586 191.035,211.511 191.157 C 211.435 191.280,211.619 191.380,211.919 191.380 C 212.588 191.380,212.603 191.440,211.756 190.705 C 211.214 190.233,211.048 190.188,211.048 190.512 M162.529 190.782 C 162.096 191.007,161.682 191.198,161.608 191.205 C 161.534 191.212,161.473 191.282,161.473 191.360 C 161.473 191.438,161.473 191.568,161.473 191.650 C 161.473 191.731,161.770 191.603,162.133 191.365 C 162.496 191.127,162.879 191.018,162.983 191.123 C 163.087 191.227,163.173 191.156,163.173 190.965 C 163.173 190.774,163.320 190.709,163.500 190.820 C 163.702 190.945,163.750 190.898,163.625 190.695 C 163.378 190.296,163.473 190.289,162.529 190.782 M244.189 191.062 C 244.577 191.276,244.982 191.397,245.090 191.330 C 245.198 191.264,245.367 191.338,245.465 191.497 C 245.562 191.655,245.787 191.785,245.963 191.785 C 246.140 191.785,246.038 191.605,245.737 191.385 C 245.436 191.165,245.093 191.045,244.975 191.118 C 244.856 191.192,244.759 191.117,244.759 190.952 C 244.759 190.787,244.472 190.656,244.122 190.662 C 243.492 190.672,243.493 190.676,244.189 191.062 M194.406 191.362 C 194.523 191.491,194.408 191.831,194.149 192.116 C 193.885 192.408,193.818 192.635,193.997 192.635 C 194.517 192.635,194.966 191.572,194.548 191.332 C 194.352 191.219,194.289 191.233,194.406 191.362 M247.048 191.987 C 247.036 192.176,247.278 192.466,247.586 192.631 C 248.042 192.875,248.115 192.851,247.981 192.501 C 247.890 192.265,247.713 192.135,247.587 192.213 C 247.460 192.291,247.293 192.195,247.214 191.999 C 247.106 191.733,247.065 191.730,247.048 191.987 M213.314 193.022 C 213.314 193.134,213.633 193.570,214.023 193.990 C 214.412 194.410,214.731 194.618,214.731 194.452 C 214.731 194.286,214.412 193.850,214.023 193.484 C 213.633 193.118,213.314 192.911,213.314 193.022 M155.254 193.470 C 155.028 193.613,154.709 193.656,154.546 193.566 C 154.359 193.462,154.363 193.525,154.557 193.737 C 154.853 194.058,156.374 193.734,156.374 193.350 C 156.374 193.113,155.704 193.185,155.254 193.470 M253.258 194.000 C 253.258 194.469,253.845 194.716,254.135 194.369 C 254.278 194.197,254.311 194.117,254.207 194.193 C 254.103 194.268,253.847 194.187,253.638 194.014 C 253.378 193.798,253.258 193.794,253.258 194.000 M254.786 194.499 C 254.880 194.746,254.958 195.001,254.958 195.066 C 254.958 195.131,255.101 195.184,255.275 195.184 C 255.509 195.184,255.510 195.084,255.278 194.804 C 255.104 194.595,255.046 194.340,255.149 194.237 C 255.251 194.135,255.173 194.051,254.974 194.051 C 254.762 194.051,254.684 194.235,254.786 194.499 M191.340 194.917 C 191.340 195.600,191.600 195.619,192.095 194.972 C 192.303 194.699,192.363 194.570,192.226 194.686 C 192.090 194.801,191.835 194.777,191.659 194.631 C 191.441 194.449,191.340 194.540,191.340 194.917 M147.472 195.219 C 147.617 195.454,148.343 195.377,148.623 195.097 C 148.732 194.988,148.490 194.927,148.085 194.960 C 147.681 194.994,147.405 195.110,147.472 195.219 M144.856 195.375 C 145.127 195.646,146.459 195.672,146.459 195.406 C 146.459 195.284,146.055 195.184,145.562 195.184 C 145.068 195.184,144.751 195.270,144.856 195.375 M218.181 197.936 C 218.347 198.136,218.574 198.300,218.684 198.300 C 218.795 198.300,218.886 198.136,218.886 197.936 C 218.886 197.736,218.659 197.572,218.382 197.572 C 218.004 197.572,217.954 197.663,218.181 197.936 M220.397 199.176 C 220.397 199.336,220.249 199.376,220.070 199.265 C 219.877 199.146,219.819 199.186,219.928 199.363 C 220.030 199.528,220.369 199.597,220.680 199.515 C 221.358 199.338,221.381 199.262,220.822 199.048 C 220.588 198.958,220.397 199.016,220.397 199.176 M185.515 199.814 C 185.689 200.023,185.736 200.305,185.621 200.442 C 185.505 200.578,185.632 200.520,185.903 200.313 C 186.454 199.891,186.318 199.433,185.643 199.433 C 185.304 199.433,185.274 199.523,185.515 199.814 M225.212 202.983 C 225.212 203.442,225.655 203.546,225.902 203.146 C 225.989 203.006,225.869 202.819,225.636 202.730 C 225.379 202.631,225.212 202.731,225.212 202.983 M180.548 203.580 C 180.548 204.009,181.182 204.107,181.425 203.715 C 181.510 203.577,181.348 203.403,181.064 203.329 C 180.751 203.247,180.548 203.346,180.548 203.580 M226.815 203.944 C 226.345 204.115,226.364 204.167,226.999 204.456 C 227.574 204.718,227.695 204.704,227.648 204.380 C 227.565 203.812,227.406 203.729,226.815 203.944 M179.339 204.369 C 179.064 204.699,179.109 204.744,179.587 204.619 C 179.908 204.535,180.170 204.354,180.170 204.216 C 180.170 203.834,179.713 203.918,179.339 204.369 M177.060 205.654 C 176.853 206.040,176.535 206.237,176.240 206.160 C 175.921 206.076,175.759 206.203,175.759 206.534 C 175.759 207.012,175.791 207.012,176.477 206.532 C 176.872 206.256,177.351 205.980,177.540 205.919 C 177.758 205.848,177.795 205.662,177.642 205.415 C 177.449 205.104,177.328 205.154,177.060 205.654 M231.067 206.637 C 230.980 206.864,231.145 207.086,231.464 207.169 C 232.113 207.339,232.156 207.187,231.614 206.644 C 231.278 206.309,231.193 206.307,231.067 206.637 M236.149 209.182 C 236.232 209.399,236.546 209.640,236.847 209.719 C 237.481 209.885,237.544 209.730,237.033 209.257 C 236.507 208.771,235.973 208.725,236.149 209.182 M237.728 209.643 C 237.900 210.158,239.093 210.921,239.093 210.516 C 239.093 210.341,238.902 210.198,238.669 210.198 C 238.435 210.198,238.275 210.055,238.314 209.880 C 238.353 209.704,238.210 209.497,237.996 209.419 C 237.765 209.336,237.656 209.427,237.728 209.643 M243.626 211.568 C 243.626 211.749,243.594 211.981,243.555 212.083 C 243.516 212.185,243.715 212.303,243.996 212.344 C 244.431 212.408,244.454 212.349,244.147 211.946 C 243.949 211.686,243.750 211.420,243.706 211.355 C 243.662 211.290,243.626 211.386,243.626 211.568 M162.606 212.066 C 162.606 212.518,162.859 212.565,163.409 212.216 C 163.697 212.034,163.646 211.940,163.197 211.822 C 162.805 211.720,162.606 211.802,162.606 212.066 M249.493 213.208 C 249.387 213.314,249.522 213.568,249.792 213.773 C 250.394 214.230,250.708 214.261,250.708 213.864 C 250.708 213.699,250.589 213.638,250.442 213.729 C 250.296 213.819,250.066 213.695,249.931 213.454 C 249.796 213.213,249.599 213.102,249.493 213.208 M155.667 213.883 C 155.872 214.215,156.941 214.265,156.941 213.943 C 156.941 213.821,156.615 213.694,156.217 213.661 C 155.797 213.627,155.566 213.720,155.667 213.883 " stroke="none" fill="#241c1c" fill-rule="evenodd"></path><path id="path2" d="M102.394 78.329 C 102.394 83.782,102.432 85.973,102.478 83.197 C 102.525 80.421,102.525 75.960,102.478 73.282 C 102.432 70.604,102.394 72.875,102.394 78.329 M304.376 78.045 C 304.377 83.343,304.415 85.470,304.461 82.772 C 304.508 80.075,304.508 75.740,304.461 73.141 C 304.414 70.541,304.376 72.748,304.376 78.045 M154.958 69.400 C 155.439 69.717,156.290 69.793,155.989 69.492 C 155.881 69.384,155.509 69.257,155.163 69.208 C 154.663 69.138,154.620 69.178,154.958 69.400 M171.230 74.660 C 171.839 75.115,172.357 75.209,172.117 74.822 C 172.033 74.685,171.675 74.500,171.322 74.411 C 170.702 74.255,170.699 74.264,171.230 74.660 M171.749 98.017 C 172.145 98.329,172.576 98.581,172.708 98.577 C 173.017 98.569,171.609 97.465,171.279 97.457 C 171.141 97.453,171.353 97.705,171.749 98.017 M226.346 105.524 C 226.145 105.765,226.045 106.026,226.123 106.104 C 226.201 106.182,226.429 106.049,226.629 105.807 C 226.829 105.566,226.929 105.305,226.851 105.227 C 226.773 105.149,226.546 105.283,226.346 105.524 M297.445 146.607 C 296.915 147.246,297.222 147.320,297.854 146.706 C 298.154 146.414,298.265 146.176,298.101 146.176 C 297.937 146.176,297.642 146.370,297.445 146.607 M216.027 157.696 C 215.927 157.956,215.961 158.284,216.103 158.426 C 216.257 158.580,216.360 158.390,216.360 157.953 C 216.360 157.104,216.278 157.041,216.027 157.696 M182.515 174.858 C 181.961 175.574,181.772 176.014,182.108 175.807 C 182.443 175.600,183.114 174.504,182.906 174.504 C 182.842 174.504,182.666 174.664,182.515 174.858 M228.329 179.887 C 228.640 180.198,228.979 180.453,229.081 180.453 C 229.183 180.453,229.036 180.198,228.754 179.887 C 228.472 179.575,228.133 179.320,228.001 179.320 C 227.870 179.320,228.017 179.575,228.329 179.887 M209.915 189.425 C 210.460 190.045,210.951 190.521,211.005 190.480 C 211.180 190.351,210.076 189.018,209.490 188.651 C 209.178 188.455,209.370 188.804,209.915 189.425 M102.394 205.666 C 102.394 211.041,102.432 213.240,102.478 210.552 C 102.525 207.865,102.525 203.467,102.478 200.779 C 102.432 198.091,102.394 200.290,102.394 205.666 M304.376 205.524 C 304.377 210.822,304.415 212.949,304.461 210.251 C 304.508 207.553,304.508 203.219,304.461 200.619 C 304.414 198.019,304.376 200.227,304.376 205.524 M223.211 201.786 C 223.735 202.461,224.646 202.952,224.646 202.560 C 224.646 202.398,224.497 202.266,224.314 202.266 C 224.132 202.266,223.719 202.043,223.398 201.771 C 222.839 201.296,222.831 201.297,223.211 201.786 M175.073 206.937 C 174.881 207.169,174.610 207.289,174.472 207.204 C 174.334 207.119,174.221 207.184,174.221 207.349 C 174.221 207.806,174.631 207.709,175.354 207.082 C 175.713 206.771,175.876 206.516,175.715 206.516 C 175.555 206.516,175.266 206.705,175.073 206.937 M172.238 208.357 C 171.848 208.580,171.657 208.762,171.813 208.762 C 171.969 208.762,172.415 208.580,172.805 208.357 C 173.194 208.134,173.385 207.952,173.229 207.952 C 173.074 207.952,172.627 208.134,172.238 208.357 " stroke="none" fill="#242424" fill-rule="evenodd"></path><path id="path3" d="" stroke="none" fill="#281c24" fill-rule="evenodd"></path><path id="path4" d="" stroke="none" fill="#281c24" fill-rule="evenodd"></path></g></svg>