<?xml version="1.0" encoding="UTF-8"?>
<svg id="Layer_1" data-name="Layer 1" xmlns="http://www.w3.org/2000/svg" version="1.1" viewBox="0 0 1182.29 837.49">
  <defs>
    <style>
      .cls-1 {
        fill: #231f20;
        stroke-width: 0px;
      }
    </style>
  </defs>
  <g>
    <path class="cls-1" d="M139.74,631.25H45.34c0,15.5,12.57,28.07,28.07,28.07h49.49l-80.06,93.16c0,13.44,10.89,24.33,24.33,24.33h96.9c0-15.5-12.57-28.07-28.07-28.07h-51.99l80.06-93.16c0-13.44-10.89-24.33-24.33-24.33Z"/>
    <path class="cls-1" d="M269.03,776.8h82.16c15.73,0,28.48-12.75,28.48-28.48h-110.64v28.48Z"/>
    <path class="cls-1" d="M378.63,631.26h0s-109.6,0-109.6,0v28.48h81.12c15.73,0,28.48-12.75,28.48-28.48Z"/>
    <path class="cls-1" d="M369.26,689.27h-100.23v28.48h71.75c15.73,0,28.48-12.75,28.48-28.48Z"/>
    <path class="cls-1" d="M562.71,662.86v58.01l-68.2-89.62h-2.29c-15.04,0-27.24,12.2-27.24,27.24v118.32c17.46,0,31.61-14.15,31.61-31.61v-60.93l70.49,92.53c15.04,0,27.24-12.2,27.24-27.24v-118.32c-17.46,0-31.61,14.15-31.61,31.61Z"/>
    <path class="cls-1" d="M700.76,663.27v113.54c17.69,0,32.02-14.34,32.02-32.02v-113.54c-17.69,0-32.02,14.34-32.02,32.02Z"/>
    <path class="cls-1" d="M1107.43,663.28v113.52c17.69,0,32.02-14.34,32.02-32.02v-113.52c-17.69,0-32.02,14.34-32.02,32.02Z"/>
    <path class="cls-1" d="M1048.38,631.26c-17.69,0-32.02,14.34-32.02,32.02v113.52c17.69,0,32.02-14.34,32.02-32.02v-26.41h11.68c16.3,0,29.52-13.21,29.52-29.52h-41.2v-57.6Z"/>
    <path class="cls-1" d="M858.89,631.26h-14.78c-16.3,0-29.52,13.21-29.52,29.52h44.29v116.03c17.69,0,32.02-14.34,32.02-32.02v-84h14.78c16.3,0,29.52-13.21,29.52-29.52h-76.31Z"/>
  </g>
  <path class="cls-1" d="M774.7,118.5h114.36v-57.81h-124.67s-112.33,1.41-173.22,105.61c-37.71-65.02-106.9-105.61-183.56-105.61h-114.39v57.81h114.39c66.55,0,123.42,42.28,145.17,101.38,5.2,14.14-5.25,29.15-20.31,29.15h-181.44c-31.93,0-57.81,25.88-57.81,57.81h0s239.25,0,239.25,0c15.06,0,25.52,15.01,20.31,29.15-21.75,59.1-78.62,101.38-145.17,101.38h-114.39v57.81h114.39c76.65,0,145.85-40.59,183.56-105.61,33.51,57.34,92.49,96.38,158.78,104.15l14.45,1.45h124.67v-57.81h-114.36c-66.57,0-123.42-42.28-145.17-101.38-5.2-14.14,5.25-29.15,20.31-29.15h181.41c31.93,0,57.81-25.88,57.81-57.81h0s-239.22,0-239.22,0c-15.06,0-25.52-15.01-20.31-29.15,21.74-59.1,78.6-101.38,145.17-101.38Z"/>
</svg>